<mxfile host="app.diagrams.net" modified="2023-10-31T22:05:25.413Z" agent="Mozilla/5.0 (Windows NT 10.0; Win64; x64; rv:109.0) Gecko/20100101 Firefox/119.0" version="22.0.8" etag="SbgKMJuHDiu05UpIkCwP" type="github">
  <diagram name="Page-1" id="nwMeMBAJzR-Mh8yIJKfP">
    <mxGraphModel>
      <root>
        <mxCell id="0" />
        <mxCell id="1" parent="0" />
      </root>
    </mxGraphModel>
  </diagram>
</mxfile>
